<?xml version="1.0" standalone="no"?>
<!DOCTYPE svg PUBLIC "-//W3C//DTD SVG 20010904//EN"
 "http://www.w3.org/TR/2001/REC-SVG-20010904/DTD/svg10.dtd">
<svg version="1.0" xmlns="http://www.w3.org/2000/svg"
 width="260.000000pt" height="260.000000pt" viewBox="0 0 260.000000 260.000000"
 preserveAspectRatio="xMidYMid meet">
<metadata>
Created by potrace 1.11, written by Peter Selinger 2001-2013
</metadata>
<g transform="translate(0.000000,260.000000) scale(0.100000,-0.100000)"
fill="#000000" stroke="none">
<path d="M1360 2589 c-102 -12 -142 -20 -228 -45 -504 -146 -863 -544 -946
-1049 -19 -113 -15 -330 9 -440 80 -383 324 -705 669 -886 147 -77 256 -114
426 -144 95 -17 333 -17 425 0 39 7 86 16 105 20 58 10 205 62 279 98 94 46
261 158 300 202 41 47 41 86 2 126 -46 45 -84 40 -161 -21 -123 -99 -264 -171
-415 -214 -120 -33 -177 -40 -325 -40 -169 0 -276 19 -417 74 -326 125 -583
401 -678 726 -34 116 -40 162 -40 324 0 108 5 154 23 229 110 439 460 764 912
846 76 14 99 16 205 16 125 1 258 -20 363 -55 99 -34 152 -21 173 41 15 46 -3
87 -44 106 -69 31 -211 69 -312 83 -70 9 -259 11 -325 3z"/>
<path d="M1360 2145 c-338 -70 -599 -312 -681 -633 -22 -89 -24 -131 -5 -157
15 -20 70 -25 87 -8 6 6 22 57 35 113 29 121 85 240 141 298 7 7 18 21 25 30
26 35 123 114 182 148 33 20 101 50 151 67 81 27 103 30 215 31 149 1 181 -4
287 -42 285 -104 473 -361 487 -667 3 -62 -21 -197 -49 -270 -65 -175 -224
-339 -395 -410 -82 -33 -102 -71 -62 -117 20 -24 41 -23 111 6 128 52 291 183
370 299 87 127 140 288 147 441 17 420 -283 790 -706 870 -91 18 -259 18 -340
1z"/>
</g>
</svg>
