<?xml version="1.0" encoding="UTF-8" standalone="no"?>
<svg width="20px" height="20px" viewBox="0 0 20 20" version="1.1" xmlns="http://www.w3.org/2000/svg" xmlns:xlink="http://www.w3.org/1999/xlink" xmlns:sketch="http://www.bohemiancoding.com/sketch/ns">
    <!-- Generator: Sketch 3.3.2 (12043) - http://www.bohemiancoding.com/sketch -->
    <title>Earth_1 Copy</title>
    <desc>Created with Sketch.</desc>
    <defs></defs>
    <g id="Page-2" stroke="none" stroke-width="1" fill="none" fill-rule="evenodd" sketch:type="MSPage">
        <g id="footer" sketch:type="MSArtboardGroup" transform="translate(-901.000000, -215.000000)" fill="#666">
            <g id="footer_2" sketch:type="MSLayerGroup" transform="translate(0.000000, 180.000000)">
                <g id="Earth_1-Copy" transform="translate(901.000000, 35.000000)" sketch:type="MSShapeGroup">
                    <path d="M17.971875,4.355 L17.678125,4.448125 L16.11375,4.5875 L15.671875,5.293125 L15.35125,5.19125 L14.10625,4.06875 L13.925625,3.485 L13.68375,2.8625 L12.90125,2.160625 L11.978125,1.98 L11.956875,2.4025 L12.86125,3.285 L13.30375,3.80625 L12.80625,4.06625 L12.40125,3.946875 L11.794375,3.69375 L11.815,3.204375 L11.01875,2.876875 L10.754375,4.0275 L9.951875,4.209375 L10.03125,4.85125 L11.076875,5.0525 L11.2575,4.026875 L12.120625,4.154375 L12.521875,4.389375 L13.165625,4.389375 L13.60625,5.271875 L14.774375,6.456875 L14.68875,6.9175 L13.746875,6.7975 L12.119375,7.619375 L10.9475,9.025 L10.795,9.6475 L10.374375,9.6475 L9.590625,9.28625 L8.829375,9.6475 L9.01875,10.450625 L9.35,10.06875 L9.9325,10.050625 L9.891875,10.771875 L10.374375,10.913125 L10.85625,11.454375 L11.643125,11.233125 L12.541875,11.375 L13.585625,11.655625 L14.106875,11.716875 L14.990625,12.72 L16.69625,13.723125 L15.593125,15.830625 L14.42875,16.371875 L13.986875,17.57625 L12.301875,18.70125 L12.1225,19.35 C16.43,18.3125 19.634375,14.443125 19.634375,9.816875 C19.633125,7.79625 19.020625,5.915625 17.971875,4.355 L17.971875,4.355 Z" id="Shape"></path>
                    <path d="M10.946875,14.948125 L10.231875,13.6225 L10.888125,12.255 L10.231875,12.05875 L9.495,11.31875 L7.8625,10.9525 L7.320625,9.81875 L7.320625,10.491875 L7.081875,10.491875 L5.675,8.584375 L5.675,7.0175 L4.64375,5.340625 L3.00625,5.6325 L1.903125,5.6325 L1.348125,5.26875 L2.05625,4.7075 L1.35,4.870625 C0.49875,6.324375 0.0025,8.01125 0.0025,9.818125 C0.0025,15.23875 4.396875,19.635 9.818125,19.635 C10.235625,19.635 10.645,19.598125 11.05,19.549375 L10.9475,18.36 C10.9475,18.36 11.398125,16.59375 11.398125,16.53375 C11.3975,16.473125 10.946875,14.948125 10.946875,14.948125 L10.946875,14.948125 Z" id="Shape"></path>
                    <path d="M3.65,3.165625 L5.39375,2.9225 L6.1975,2.481875 L7.101875,2.7425 L8.546875,2.6625 L9.041875,1.884375 L9.76375,2.003125 L11.516875,1.83875 L12,1.30625 L12.68125,0.85125 L13.645,0.99625 L13.99625,0.943125 C12.726875,0.345625 11.314375,0 9.8175,0 C6.770625,0 4.04625,1.38875 2.2475,3.569375 L2.2525,3.569375 L3.65,3.165625 L3.65,3.165625 Z M10.2325,0.97625 L11.235,0.424375 L11.87875,0.79625 L10.946875,1.505625 L10.056875,1.595 L9.65625,1.335 L10.2325,0.97625 L10.2325,0.97625 Z M7.263125,1.056875 L7.705625,1.24125 L8.285,1.056875 L8.600625,1.60375 L7.263125,1.955 L6.62,1.57875 C6.619375,1.57875 7.24875,1.17375 7.263125,1.056875 L7.263125,1.056875 Z" id="Shape"></path>
                </g>
            </g>
        </g>
    </g>
</svg>
