<?xml version="1.0" encoding="UTF-8" standalone="no"?>
<svg width="16px" height="12px" viewBox="0 0 16 12" version="1.1" xmlns="http://www.w3.org/2000/svg" xmlns:xlink="http://www.w3.org/1999/xlink">
    <!-- Generator: Sketch 3.8.2 (29753) - http://www.bohemiancoding.com/sketch -->
    <title>chile</title>
    <desc>Created with Sketch.</desc>
    <defs></defs>
    <g id="Page-1" stroke="none" stroke-width="1" fill="none" fill-rule="evenodd">
        <g id="chile">
            <rect id="Rectangle-13" fill="#FFFFFF" x="0" y="0" width="16" height="12" rx="1"></rect>
            <path d="M0,10.9970707 C0,11.5509732 0.444630861,12 1.00087166,12 L14.9991283,12 C15.5518945,12 16,11.5621186 16,10.9970707 L16,5 L0,5 L0,10.9970707 Z" id="Shape" fill="#E34F4F"></path>
            <path d="M0,5 L5,5 L5,0 L0.999807492,0 C0.447629061,0 0,0.443716645 0,0.999807492 L0,5 Z" id="Path" fill="#2273C9"></path>
            <polygon id="Path" fill="#FFFFFF" points="2.60459659 3.57224693 1.61290146 4.10215899 1.80229833 2.97978733 1 2.18491931 2.10874916 2.02116734 2.60459664 1 3.10044443 2.02116759 4.2091935 2.18492013 3.40689484 2.97978754 3.59629175 4.10215902"></polygon>
        </g>
    </g>
</svg>