<?xml version="1.0" encoding="UTF-8" standalone="no"?>
<svg width="16px" height="12px" viewBox="0 0 16 12" version="1.1" xmlns="http://www.w3.org/2000/svg" xmlns:xlink="http://www.w3.org/1999/xlink">
    <!-- Generator: Sketch 3.8.2 (29753) - http://www.bohemiancoding.com/sketch -->
    <title>Group 4</title>
    <desc>Created with Sketch.</desc>
    <defs></defs>
    <g id="Page-1" stroke="none" stroke-width="1" fill="none" fill-rule="evenodd">
        <g id="Group-4">
            <rect id="Rectangle-29" fill="#FFFFFF" x="0" y="0" width="16" height="12" rx="1"></rect>
            <path d="M2.57777778,2.77777778 L2.57777778,3.22222222 L5.24444444,3.22222222 L5.24444444,2.77777778 L2.57777778,2.77777778 L2.57777778,2.77777778 Z M2.57777778,3.4 L2.57777778,3.84444444 L5.24444444,3.84444444 L5.24444444,3.4 L2.57777778,3.4 L2.57777778,3.4 Z M2.57777778,4.02222222 L2.57777778,4.46666667 L5.24444444,4.46666667 L5.24444444,4.02222222 L2.57777778,4.02222222 L2.57777778,4.02222222 Z" id="Shape" fill="#000000" transform="translate(3.911111, 3.622222) rotate(-56.000000) translate(-3.911111, -3.622222) "></path>
            <path d="M2.57777778,7.73314633 L2.57777778,8.17759077 L5.24444444,8.17759077 L5.24444444,7.73314633 L2.57777778,7.73314633 L2.57777778,7.73314633 Z M2.57777778,8.35536855 L2.57777778,8.79981299 L3.82222222,8.79981299 L3.82222222,8.35536855 L2.57777778,8.35536855 L2.57777778,8.35536855 Z M4,8.35536855 L4,8.79981299 L5.24444444,8.79981299 L5.24444444,8.35536855 L4,8.35536855 L4,8.35536855 Z M2.57777778,8.97759077 L2.57777778,9.42203522 L5.24444444,9.42203522 L5.24444444,8.97759077 L2.57777778,8.97759077 L2.57777778,8.97759077 Z" id="Shape" fill="#000000" transform="translate(3.911111, 8.577591) rotate(236.000000) translate(-3.911111, -8.577591) "></path>
            <path d="M10.7555556,2.77777778 L10.7555556,3.22222222 L12,3.22222222 L12,2.77777778 L10.7555556,2.77777778 L10.7555556,2.77777778 Z M12.1777778,2.77777778 L12.1777778,3.22222222 L13.4222222,3.22222222 L13.4222222,2.77777778 L12.1777778,2.77777778 L12.1777778,2.77777778 Z M10.7555556,3.4 L10.7555556,3.84444444 L13.4222222,3.84444444 L13.4222222,3.4 L10.7555556,3.4 L10.7555556,3.4 Z M10.7555556,4.02222222 L10.7555556,4.46666667 L12,4.46666667 L12,4.02222222 L10.7555556,4.02222222 L10.7555556,4.02222222 Z M12.1777778,4.02222222 L12.1777778,4.46666667 L13.4222222,4.46666667 L13.4222222,4.02222222 L12.1777778,4.02222222 L12.1777778,4.02222222 Z" id="Shape" fill="#000000" transform="translate(12.088889, 3.622222) rotate(236.000000) translate(-12.088889, -3.622222) "></path>
            <path d="M10.7555556,7.73314633 L10.7555556,8.17759077 L12,8.17759077 L12,7.73314633 L10.7555556,7.73314633 L10.7555556,7.73314633 Z M12.1777778,7.73314633 L12.1777778,8.17759077 L13.4222222,8.17759077 L13.4222222,7.73314633 L12.1777778,7.73314633 L12.1777778,7.73314633 Z M10.7555556,8.35536855 L10.7555556,8.79981299 L12,8.79981299 L12,8.35536855 L10.7555556,8.35536855 L10.7555556,8.35536855 Z M12.1777778,8.35536855 L12.1777778,8.79981299 L13.4222222,8.79981299 L13.4222222,8.35536855 L12.1777778,8.35536855 L12.1777778,8.35536855 Z M10.7555556,8.97759077 L10.7555556,9.42203522 L12,9.42203522 L12,8.97759077 L10.7555556,8.97759077 L10.7555556,8.97759077 Z M12.1777778,8.97759077 L12.1777778,9.42203522 L13.4222222,9.42203522 L13.4222222,8.97759077 L12.1777778,8.97759077 L12.1777778,8.97759077 Z" id="Shape" fill="#000000" transform="translate(12.088889, 8.577591) rotate(124.000000) translate(-12.088889, -8.577591) "></path>
            <circle id="Oval-2" fill="#D8D8D8" cx="8.5" cy="6.5" r="2.5"></circle>
            <g id="Group-3" transform="translate(5.000000, 3.000000)">
                <path d="M5.65916243,4.94899519 C6.00369393,4.2920055 6.1057512,3.44642474 5.23977182,2.85326094 C4.37379244,2.26009714 3.57195968,2.7087386 3.03742589,3.22191157 C2.5028921,3.73508454 1.78656678,3.95959771 0.931299885,3.5212197 C0.0759688431,3.08290584 0.236463688,1.96425292 0.236463688,1.96425292 C0.708775258,0.847652692 1.81440641,0.0641658648 3.10311203,0.0641658648 C4.82127927,0.0641658648 6.21422314,1.45704559 6.21422314,3.17527698 C6.21422314,3.8345118 6.00914639,4.44589324 5.65929072,4.94912348 L5.65916243,4.94899519 Z" id="Fill-1" fill="#F95545"></path>
                <path d="M5.66732829,4.93587721 C5.10540389,5.74406048 4.17008202,6.27314181 3.11108545,6.27314181 C1.39291821,6.27314181 -2.56586484e-05,4.88026208 -2.56586484e-05,3.1620307 C-2.56586484e-05,2.73250493 0.0870854525,2.32324948 0.24450126,1.95107079 L0.24982543,1.93881879 C0.24982543,1.93881879 0.0840064147,3.06965956 0.939337457,3.50803757 C1.79460435,3.94635143 2.51092967,3.72183826 3.04546346,3.20866529 C3.57999725,2.69549233 4.38183001,2.24691501 5.24780939,2.84001466 C6.11378877,3.43317847 6.0117315,4.27875922 5.6672,4.93574891 L5.66732829,4.93587721 Z" id="Fill-4" fill="#0074B7"></path>
            </g>
        </g>
    </g>
</svg>