<?xml version="1.0" encoding="UTF-8" standalone="no"?>
<svg width="16px" height="12px" viewBox="0 0 16 12" version="1.1" xmlns="http://www.w3.org/2000/svg" xmlns:xlink="http://www.w3.org/1999/xlink">
    <!-- Generator: Sketch 3.8.2 (29753) - http://www.bohemiancoding.com/sketch -->
    <title>Group</title>
    <desc>Created with Sketch.</desc>
    <defs></defs>
    <g id="Page-1" stroke="none" stroke-width="1" fill="none" fill-rule="evenodd">
        <g id="Group">
            <rect id="Rectangle-29" fill="#E34F4F" x="0" y="0" width="16" height="12" rx="1"></rect>
            <path d="M2.66190265,4.2096254 L1.67010425,4.75327689 L1.85952084,3.60180464 L1.05713896,2.78632748 L2.16600359,2.6183298 L2.6619027,1.57068588 L3.15780212,2.61833005 L4.26666667,2.78632833 L3.46428446,3.60180486 L3.65370109,4.75327692 L2.66190265,4.2096254 L2.66190265,4.2096254 Z M4.57099448,1.79127484 L4.35124911,1.90574458 L4.39321673,1.66329382 L4.21543896,1.49158925 L4.46112182,1.45621613 L4.5709945,1.23562718 L4.68086723,1.45621619 L4.92655007,1.49158943 L4.74877223,1.66329388 L4.79073986,1.90574458 L4.57099448,1.79127484 L4.57099448,1.79127484 Z M5.53823087,2.56867221 L5.3184855,2.68314195 L5.36045312,2.44069119 L5.18267535,2.26898662 L5.42835821,2.2336135 L5.53823089,2.01302455 L5.64810362,2.23361356 L5.89378646,2.26898679 L5.71600862,2.44069124 L5.75797625,2.68314195 L5.53823087,2.56867221 L5.53823087,2.56867221 Z M5.65065178,3.73652735 L5.43090641,3.85099708 L5.47287403,3.60854633 L5.29509627,3.43684176 L5.54077913,3.40146864 L5.6506518,3.18087969 L5.76052452,3.40146869 L6.00620738,3.43684194 L5.82842953,3.60854637 L5.87039716,3.85099708 L5.65065178,3.73652735 L5.65065178,3.73652735 Z M4.74851971,4.75219694 L4.52877433,4.86666666 L4.57074196,4.62421591 L4.39296419,4.45251134 L4.63864705,4.41713822 L4.74851972,4.19654928 L4.85839245,4.41713828 L5.1040753,4.45251152 L4.92629746,4.62421596 L4.96826508,4.86666667 L4.74851971,4.75219694 L4.74851971,4.75219694 Z" id="Shape" fill="#FFF900"></path>
        </g>
    </g>
</svg>