<?xml version="1.0" encoding="UTF-8" standalone="no"?>
<svg width="16px" height="12px" viewBox="0 0 16 12" version="1.1" xmlns="http://www.w3.org/2000/svg" xmlns:xlink="http://www.w3.org/1999/xlink">
    <!-- Generator: Sketch 3.8.2 (29753) - http://www.bohemiancoding.com/sketch -->
    <title>hongkong</title>
    <desc>Created with Sketch.</desc>
    <defs></defs>
    <g id="Page-1" stroke="none" stroke-width="1" fill="none" fill-rule="evenodd">
        <g id="hongkong">
            <rect id="Rectangle-13" fill="#E34F4F" x="0" y="0" width="16" height="12" rx="1"></rect>
            <path d="M7.60734747,6.03393707 C6.32049603,7.21832139 4.50334986,5.80390018 5.12632152,4.28221332 C5.18938702,4.66484378 5.49363587,4.81452788 5.85194339,4.72192345 C6.25310983,4.61819723 6.71134581,5.01767447 6.74735498,5.34255348 C6.80174208,5.83184492 7.25808796,6.10361671 7.65682252,5.93166023 C7.48451615,6.05249254 7.25075548,6.11627437 7.00815127,6.10529555 C6.67507077,6.08998244 6.3618928,5.937614 6.14952969,5.68726447 L6.11494492,5.71551936 C6.33563799,5.97537768 6.66037554,6.13339983 7.00605006,6.14930975 C7.25187014,6.16048713 7.48222786,6.10114988 7.65996213,5.98375829 C7.6537854,5.98985899 7.60734747,6.03393707 7.60734747,6.03393707 L7.60734747,6.03393707 Z M7.80479591,5.89803957 C7.63626344,5.76820168 7.50765343,5.57124112 7.44250812,5.33803892 C7.35108616,5.01004839 7.40366785,4.65771087 7.58695635,4.37114622 L7.62498822,4.39473857 C7.44832807,4.6705795 7.39764583,5.01036612 7.48575362,5.32640162 C7.55009732,5.55653685 7.6840603,5.75530442 7.85424533,5.87900604 C7.56461304,5.5594785 7.68661047,5.04898671 8.14333175,4.84695609 C8.44661659,4.7129081 8.69162108,4.16118662 8.46726937,3.81830189 C8.26692532,3.51203708 8.31776896,3.18142528 8.6685838,3.00424374 C7.00341322,2.89222952 6.19608974,5.02764819 7.73997495,5.86437097 C7.73997495,5.86437097 7.79698303,5.89415191 7.80479591,5.89803957 L7.80479591,5.89803957 Z M7.73046642,6.21029206 C8.47903292,7.77900407 6.54865227,9.04026262 5.26849922,7.98779448 C5.65829069,8.04709158 5.89717046,7.80898966 5.9182726,7.44549215 C5.94185539,7.03850106 6.47006529,6.73367011 6.79560504,6.80040841 C7.28593941,6.90077651 7.6899741,6.55824894 7.64677333,6.13244643 C7.71046716,6.33082654 7.69995811,6.56901347 7.61436416,6.79236341 C7.49661687,7.09893487 7.25238,7.34455262 6.94447223,7.46566903 L6.96112955,7.50672385 C7.28081386,7.38076049 7.53409439,7.126086 7.65631104,6.80792834 C7.74309089,6.58163419 7.75684978,6.34800117 7.69816313,6.14561128 C7.70215857,6.15326939 7.73046642,6.21029206 7.73046642,6.21029206 L7.73046642,6.21029206 Z M7.93918564,6.14971935 C9.68867744,5.93485181 10.3127822,8.12877444 8.89863216,9 C9.07647104,8.65401718 8.91985805,8.35717795 8.57459228,8.22512859 C8.18800085,8.07732054 8.05621653,7.48944735 8.221402,7.20581486 C8.47005821,6.77855435 8.26341949,6.29508888 7.83798539,6.20388495 C8.04965671,6.20565829 8.27692242,6.28908406 8.46662667,6.43810075 C8.72693534,6.64288544 8.88916656,6.94705399 8.91123225,7.27225759 L8.95611182,7.26937598 C8.93299453,6.93166799 8.76479296,6.61624837 8.49465247,6.40370622 C8.30246529,6.25267133 8.08061104,6.16761545 7.86660642,6.15992321 C7.87525247,6.15855548 7.93918564,6.14971935 7.93918564,6.14971935 L7.93918564,6.14971935 Z M11,5.91999627 C10.720119,5.64687003 10.384447,5.70151524 10.149959,5.98340174 C9.88744956,6.29904239 9.27779249,6.24054777 9.05434292,5.99851497 C8.71768656,5.63408531 8.18594209,5.6778148 7.96621013,6.04725018 C8.03333637,5.84996606 8.18430337,5.66333911 8.38714098,5.53208654 C8.66576787,5.35207897 9.01026919,5.29444773 9.33181423,5.37431818 L9.34289405,5.33148242 C9.00892247,5.24873079 8.65168763,5.30846521 8.362515,5.49526459 C8.15695694,5.62821409 8.00608458,5.80927966 7.9325091,6.00691548 C8.21388341,4.2321078 10.5882717,4.30727276 11,5.91999627 L11,5.91999627 Z M7.85919311,4.28090026 L7.75722265,4.43822287 L7.72028201,4.25516299 L7.53634669,4.20845464 L7.70213482,4.11722264 L7.69057587,3.93102522 L7.82985079,4.05780461 L8.0065111,3.98937071 L7.9270927,4.15880747 L8.0476954,4.30278476 L7.85919311,4.28090026 L7.85919311,4.28090026 L7.85919311,4.28090026 L7.85919311,4.28090026 L7.85919311,4.28090026 Z M9.51435836,5.55803263 L9.33059362,5.51134442 L9.49634055,5.42025037 L9.48470489,5.23390719 L9.62422902,5.36066375 L9.80085583,5.29232236 L9.7211992,5.46166838 L9.84201934,5.60563129 L9.65349979,5.58376415 L9.5514293,5.7409732 L9.51435836,5.55803263 L9.51435836,5.55803263 L9.51435836,5.55803263 L9.51435836,5.55803263 L9.51435836,5.55803263 Z M8.78984582,7.49963767 L8.77824341,7.31346014 L8.91762131,7.44022082 L9.09436543,7.37176274 L9.01480795,7.54133461 L9.13552821,7.68529474 L8.94702282,7.66317691 L8.84503349,7.8205848 L8.80794033,7.63763341 L8.62425462,7.59081664 L8.78984582,7.49963767 L8.78984582,7.49963767 L8.78984582,7.49963767 L8.78984582,7.49963767 L8.78984582,7.49963767 Z M6.68690722,7.42248322 L6.86350127,7.3541074 L6.78389462,7.52354384 L6.9047641,7.66757758 L6.71607075,7.64562221 L6.61405324,7.80293586 L6.5772071,7.6199203 L6.39335404,7.57324081 L6.55894884,7.48203774 L6.54749528,7.29589431 L6.68690722,7.42248322 L6.68690722,7.42248322 L6.68690722,7.42248322 L6.68690722,7.42248322 L6.68690722,7.42248322 Z M6.11173222,5.43319407 L6.23247572,5.57711301 L6.04389825,5.55506983 L5.94185557,5.71254567 L5.90479416,5.52940463 L5.72102359,5.48266967 L5.88675682,5.39167763 L5.87511871,5.20542025 L6.01455505,5.33200507 L6.19116208,5.26377887 L6.11173222,5.43319407 L6.11173222,5.43319407 L6.11173222,5.43319407 L6.11173222,5.43319407 L6.11173222,5.43319407 Z" id="Shape" fill="#FFFFFF"></path>
        </g>
    </g>
</svg>