<?xml version="1.0" encoding="UTF-8" standalone="no"?>
<svg width="16px" height="12px" viewBox="0 0 16 12" version="1.1" xmlns="http://www.w3.org/2000/svg" xmlns:xlink="http://www.w3.org/1999/xlink">
    <!-- Generator: Sketch 3.8.2 (29753) - http://www.bohemiancoding.com/sketch -->
    <title>USA</title>
    <desc>Created with Sketch.</desc>
    <defs></defs>
    <g id="Page-1" stroke="none" stroke-width="1" fill="none" fill-rule="evenodd">
        <g id="USA">
            <rect id="Rectangle-13-Copy" fill="#FFFFFF" x="0" y="0" width="16" height="12" rx="1"></rect>
            <rect id="Rectangle-39" fill="#2273C9" x="0" y="0" width="9" height="7"></rect>
            <g id="Group" fill="#FFFFFF">
                <polygon id="Path" points="8.754375 1.74794214 8.8481 2.0694 8.602 1.87104009 8.3556125 2.0694 8.4499125 1.74794214 8.2038125 1.55022005 8.508275 1.55022005 8.602 1.2294 8.6960125 1.55022005 9.000475 1.55022005"></polygon>
                <polygon id="Path" points="8.754375 3.27916105 8.8481 3.6003 8.602 3.40194009 8.3556125 3.6003 8.4499125 3.27916105 8.2038125 3.08143895 8.508275 3.08143895 8.602 2.7603 8.6960125 3.08143895 9.000475 3.08143895"></polygon>
                <polygon id="Path" points="8.754375 4.81004214 8.8481 5.1315 8.602 4.93282118 8.3556125 5.1315 8.4499125 4.81004214 8.2038125 4.61232005 8.508275 4.61232005 8.602 4.2915 8.6960125 4.61232005 9.000475 4.61232005"></polygon>
                <polygon id="Path" points="8.8481 6.6627 8.602 6.46394573 8.3556125 6.6627 8.4499125 6.34112005 8.2038125 6.14332286 8.508275 6.14332286 8.602 5.8227 8.6960125 6.14332286 9.000475 6.14332286 8.754375 6.34112005"></polygon>
                <polygon id="Path" points="7.897625 0.982820053 7.99135 1.3044 7.74525 1.10564573 7.49915 1.3044 7.59345 0.982820053 7.34735 0.785022864 7.6512375 0.785022864 7.7449625 0.4644 7.8392625 0.785022864 8.14315 0.785022864"></polygon>
                <polygon id="Path" points="7.897625 2.51368292 7.99135 2.8347 7.74525 2.63641537 7.49915 2.8347 7.59345 2.51368292 7.34735 2.31539829 7.6512375 2.31539829 7.7449625 1.9947 7.8392625 2.31539829 8.14315 2.31539829"></polygon>
                <polygon id="Path" points="7.897625 4.04426414 7.99135 4.3656 7.74525 4.16699658 7.49915 4.3656 7.59345 4.04426414 7.34735 3.84661708 7.6512375 3.84661708 7.7449625 3.5256 7.8392625 3.84661708 8.14315 3.84661708"></polygon>
                <polygon id="Path" points="7.897625 5.57534214 7.99135 5.8968 7.74525 5.69812118 7.49915 5.8968 7.59345 5.57534214 7.34735 5.37762005 7.6512375 5.37762005 7.7449625 5.0568 7.8392625 5.37762005 8.14315 5.37762005"></polygon>
                <polygon id="Path" points="7.0405875 1.74794214 7.1343125 2.0694 6.8882125 1.87104009 6.6421125 2.0694 6.736125 1.74794214 6.490025 1.55022005 6.7944875 1.55022005 6.8882125 1.2294 6.982225 1.55022005 7.2866875 1.55022005"></polygon>
                <polygon id="Path" points="7.0405875 3.27916105 7.1343125 3.6003 6.8882125 3.40194009 6.6421125 3.6003 6.736125 3.27916105 6.490025 3.08143895 6.7944875 3.08143895 6.8882125 2.7603 6.982225 3.08143895 7.2866875 3.08143895"></polygon>
                <polygon id="Path" points="7.0405875 4.81004214 7.1343125 5.1315 6.8882125 4.93282118 6.6421125 5.1315 6.736125 4.81004214 6.490025 4.61232005 6.7944875 4.61232005 6.8882125 4.2915 6.982225 4.61232005 7.2866875 4.61232005"></polygon>
                <polygon id="Path" points="7.1343125 6.6627 6.8882125 6.46394573 6.6421125 6.6627 6.736125 6.34112005 6.490025 6.14332286 6.7944875 6.14332286 6.8882125 5.8227 6.982225 6.14332286 7.2866875 6.14332286 7.0405875 6.34112005"></polygon>
                <polygon id="Path" points="6.184125 0.982820053 6.27785 1.3044 6.03175 1.10564573 5.78565 1.3044 5.8796625 0.982820053 5.6335625 0.785022864 5.938025 0.785022864 6.03175 0.4644 6.1257625 0.785022864 6.430225 0.785022864"></polygon>
                <polygon id="Path" points="6.184125 2.51368292 6.27785 2.8347 6.03175 2.63641537 5.78565 2.8347 5.8796625 2.51368292 5.6335625 2.31539829 5.938025 2.31539829 6.03175 1.9947 6.1257625 2.31539829 6.430225 2.31539829"></polygon>
                <polygon id="Path" points="6.184125 4.04426414 6.27785 4.3656 6.03175 4.16699658 5.78565 4.3656 5.8796625 4.04426414 5.6335625 3.84661708 5.938025 3.84661708 6.03175 3.5256 6.1257625 3.84661708 6.430225 3.84661708"></polygon>
                <polygon id="Path" points="6.184125 5.57534214 6.27785 5.8968 6.03175 5.69812118 5.78565 5.8968 5.8796625 5.57534214 5.6335625 5.37762005 5.938025 5.37762005 6.03175 5.0568 6.1257625 5.37762005 6.430225 5.37762005"></polygon>
                <polygon id="Path" points="5.3270875 1.74794214 5.4208125 2.0694 5.1747125 1.87104009 4.9286125 2.0694 5.0229125 1.74794214 4.7768125 1.55022005 5.0807 1.55022005 5.174425 1.2294 5.268725 1.55022005 5.5726125 1.55022005"></polygon>
                <polygon id="Path" points="5.3270875 3.27916105 5.4208125 3.6003 5.1747125 3.40194009 4.9286125 3.6003 5.0229125 3.27916105 4.7768125 3.08143895 5.0807 3.08143895 5.174425 2.7603 5.268725 3.08143895 5.5726125 3.08143895"></polygon>
                <polygon id="Path" points="5.3270875 4.81004214 5.4208125 5.1315 5.1747125 4.93282118 4.9286125 5.1315 5.0229125 4.81004214 4.7768125 4.61232005 5.0807 4.61232005 5.174425 4.2915 5.268725 4.61232005 5.5726125 4.61232005"></polygon>
                <polygon id="Path" points="5.4208125 6.6627 5.1747125 6.46394573 4.9286125 6.6627 5.0229125 6.34112005 4.7768125 6.14332286 5.0807 6.14332286 5.174425 5.8227 5.268725 6.14332286 5.5726125 6.14332286 5.3265125 6.34112005"></polygon>
                <polygon id="Path" points="4.4703375 0.982820053 4.56435 1.3044 4.31825 1.10564573 4.07215 1.3044 4.165875 0.982820053 3.919775 0.785022864 4.2242375 0.785022864 4.31825 0.4644 4.411975 0.785022864 4.7164375 0.785022864"></polygon>
                <polygon id="Path" points="4.4703375 2.51368292 4.56435 2.8347 4.31825 2.63641537 4.07215 2.8347 4.165875 2.51368292 3.919775 2.31539829 4.2242375 2.31539829 4.31825 1.9947 4.411975 2.31539829 4.7164375 2.31539829"></polygon>
                <polygon id="Path" points="4.4703375 4.04426414 4.56435 4.3656 4.31825 4.16699658 4.07215 4.3656 4.165875 4.04426414 3.919775 3.84661708 4.2242375 3.84661708 4.31825 3.5256 4.411975 3.84661708 4.7164375 3.84661708"></polygon>
                <polygon id="Path" points="4.4703375 5.57534214 4.56435 5.8968 4.31825 5.69812118 4.07215 5.8968 4.165875 5.57534214 3.919775 5.37762005 4.2242375 5.37762005 4.31825 5.0568 4.411975 5.37762005 4.7164375 5.37762005"></polygon>
                <polygon id="Path" points="3.613875 1.74794214 3.7076 2.0694 3.4615 1.87104009 3.2154 2.0694 3.3094125 1.74794214 3.0633125 1.55022005 3.367775 1.55022005 3.4615 1.2294 3.5555125 1.55022005 3.859975 1.55022005"></polygon>
                <polygon id="Path" points="3.613875 3.27916105 3.7076 3.6003 3.4615 3.40194009 3.2154 3.6003 3.3094125 3.27916105 3.0633125 3.08143895 3.367775 3.08143895 3.4615 2.7603 3.5555125 3.08143895 3.859975 3.08143895"></polygon>
                <polygon id="Path" points="3.613875 4.81004214 3.7076 5.1315 3.4615 4.93282118 3.2154 5.1315 3.3094125 4.81004214 3.0633125 4.61232005 3.367775 4.61232005 3.4615 4.2915 3.5555125 4.61232005 3.859975 4.61232005"></polygon>
                <polygon id="Path" points="3.7073125 6.6627 3.4612125 6.46394573 3.2151125 6.6627 3.309125 6.34112005 3.063025 6.14332286 3.3674875 6.14332286 3.4612125 5.8227 3.555225 6.14332286 3.8596875 6.14332286 3.6135875 6.34112005"></polygon>
                <polygon id="Path" points="2.75655 0.982820053 2.8505625 1.3044 2.6044625 1.10564573 2.3583625 1.3044 2.4520875 0.982820053 2.2059875 0.785022864 2.51045 0.785022864 2.6044625 0.4644 2.6981875 0.785022864 3.00265 0.785022864"></polygon>
                <polygon id="Path" points="2.75655 2.51368292 2.8505625 2.8347 2.6044625 2.63641537 2.3583625 2.8347 2.4520875 2.51368292 2.2059875 2.31539829 2.51045 2.31539829 2.6044625 1.9947 2.6981875 2.31539829 3.00265 2.31539829"></polygon>
                <polygon id="Path" points="2.75655 4.04426414 2.8505625 4.3656 2.6044625 4.16699658 2.3583625 4.3656 2.4520875 4.04426414 2.2059875 3.84661708 2.51045 3.84661708 2.6044625 3.5256 2.6981875 3.84661708 3.00265 3.84661708"></polygon>
                <polygon id="Path" points="2.75655 5.57534214 2.8505625 5.8968 2.6044625 5.69812118 2.3583625 5.8968 2.4520875 5.57534214 2.2059875 5.37762005 2.51045 5.37762005 2.6044625 5.0568 2.6981875 5.37762005 3.00265 5.37762005"></polygon>
                <polygon id="Path" points="1.9000875 1.74794214 1.9938125 2.0694 1.7477125 1.87104009 1.5016125 2.0694 1.595625 1.74794214 1.349525 1.55022005 1.6539875 1.55022005 1.7477125 1.2294 1.841725 1.55022005 2.1461875 1.55022005"></polygon>
                <polygon id="Path" points="1.9000875 3.27916105 1.9938125 3.6003 1.7477125 3.40194009 1.5016125 3.6003 1.595625 3.27916105 1.349525 3.08143895 1.6539875 3.08143895 1.7477125 2.7603 1.841725 3.08143895 2.1461875 3.08143895"></polygon>
                <polygon id="Path" points="1.9000875 4.81004214 1.9938125 5.1315 1.7477125 4.93282118 1.5016125 5.1315 1.595625 4.81004214 1.349525 4.61232005 1.6539875 4.61232005 1.7477125 4.2915 1.841725 4.61232005 2.1461875 4.61232005"></polygon>
                <polygon id="Path" points="1.993525 6.6627 1.747425 6.46394573 1.501325 6.6627 1.5953375 6.34112005 1.3492375 6.14332286 1.6537 6.14332286 1.747425 5.8227 1.8414375 6.14332286 2.1459 6.14332286 1.8998 6.34112005"></polygon>
                <polygon id="Path" points="1.0433375 0.982820053 1.1370625 1.3044 0.8909625 1.10564573 0.6448625 1.3044 0.738875 0.982820053 0.492775 0.785022864 0.7972375 0.785022864 0.8909625 0.4644 0.984975 0.785022864 1.2894375 0.785022864"></polygon>
                <polygon id="Path" points="1.0433375 2.51368292 1.1370625 2.8347 0.8909625 2.63641537 0.6448625 2.8347 0.738875 2.51368292 0.492775 2.31539829 0.7972375 2.31539829 0.8909625 1.9947 0.984975 2.31539829 1.2894375 2.31539829"></polygon>
                <polygon id="Path" points="1.0433375 4.04426414 1.1370625 4.3656 0.8909625 4.16699658 0.6448625 4.3656 0.738875 4.04426414 0.492775 3.84661708 0.7972375 3.84661708 0.8909625 3.5256 0.984975 3.84661708 1.2894375 3.84661708"></polygon>
                <polygon id="Path" points="1.0433375 5.57534214 1.1370625 5.8968 0.8909625 5.69812118 0.64515 5.8968 0.7391625 5.57534214 0.4930625 5.37762005 0.797525 5.37762005 0.89125 5.0568 0.9852625 5.37762005 1.289725 5.37762005"></polygon>
            </g>
            <rect id="Rectangle-40" fill="#E34F4F" x="9" y="0" width="7" height="1"></rect>
            <rect id="Rectangle-40-Copy" fill="#E34F4F" x="9" y="2" width="7" height="1"></rect>
            <rect id="Rectangle-40-Copy-2" fill="#E34F4F" x="9" y="4" width="7" height="1"></rect>
            <rect id="Rectangle-40-Copy-3" fill="#E34F4F" x="9" y="6" width="7" height="1"></rect>
            <rect id="Rectangle-40-Copy-4" fill="#E34F4F" x="0" y="8" width="16" height="1"></rect>
            <rect id="Rectangle-40-Copy-5" fill="#E34F4F" x="0" y="10" width="16" height="1"></rect>
        </g>
    </g>
</svg>