<?xml version="1.0" encoding="UTF-8" standalone="no"?>
<svg width="16px" height="12px" viewBox="0 0 16 12" version="1.1" xmlns="http://www.w3.org/2000/svg" xmlns:xlink="http://www.w3.org/1999/xlink">
    <!-- Generator: Sketch 3.8.2 (29753) - http://www.bohemiancoding.com/sketch -->
    <title>Page 1</title>
    <desc>Created with Sketch.</desc>
    <defs>
        <rect id="path-1" x="0" y="0" width="16" height="12" rx="1"></rect>
    </defs>
    <g id="Page-1" stroke="none" stroke-width="1" fill="none" fill-rule="evenodd">
        <g>
            <g id="Group-5">
                <mask id="mask-2" fill="white">
                    <use xlink:href="#path-1"></use>
                </mask>
                <use id="Mask" fill="#2273C9" xlink:href="#path-1"></use>
                <g mask="url(#mask-2)">
                    <polygon id="Fill-8" fill="#E34F4F" points="6.97005474 6.73684211e-05 4.69030737 1.34541474 4.69030737 6.73684211e-05 3.29274947 6.73684211e-05 3.29274947 1.34541474 1.01300211 6.73684211e-05 -5.05263158e-05 6.73684211e-05 -5.05263158e-05 0.570004211 1.66226526 1.53556211 -5.05263158e-05 1.53556211 -5.05263158e-05 3.12663579 1.66226526 3.12663579 -5.05263158e-05 4.09219368 -5.05263158e-05 4.70154105 1.01300211 4.70154105 3.29274947 3.35619368 3.29274947 4.70154105 4.69030737 4.70154105 4.69030737 3.35619368 6.97005474 4.70154105 8.02588632 4.70154105 8.02588632 4.09219368 6.36373895 3.12663579 8.02588632 3.12663579 8.02588632 1.53556211 6.36373895 1.53556211 8.02588632 0.570004211 8.02588632 6.73684211e-05"></polygon>
                    <polygon id="Fill-9" fill="#FFFFFF" points="3.29274947 6.73684211e-05 3.29274947 1.34541474 1.01300211 6.73684211e-05 0.0156126316 6.73684211e-05 2.61182316 1.53556211 1.97856 1.53556211 1.96272842 1.53556211 -5.05263158e-05 0.395856842 -5.05263158e-05 0.570004211 0.0316126316 0.570004211 1.66226526 1.53556211 -5.05263158e-05 1.53556211 -5.05263158e-05 1.86802526 2.21620211 1.86802526 3.29274947 1.86802526 3.57771789 1.86802526 3.57771789 1.53556211 3.57771789 1.51973053 3.57771789 6.73684211e-05"></polygon>
                    <polygon id="Fill-10" fill="#FFFFFF" points="3.29259789 2.81807158 2.20055579 2.81807158 -3.36842106e-05 2.81807158 -3.36842106e-05 3.11887158 1.69411368 3.11887158 -3.36842106e-05 4.11609263 -3.36842106e-05 4.70169263 2.62784 3.15053474 3.29276632 3.15053474 0.633061053 4.70152421 0.997187368 4.70152421 3.29259789 3.34017684 3.29259789 4.70152421 3.57756632 4.70152421 3.57756632 3.16602947 3.57756632 3.11887158 3.57756632 2.81807158"></polygon>
                    <polygon id="Fill-11" fill="#FFFFFF" points="8.02595368 6.73684211e-05 5.44574316 1.53556211 5.41408 1.53556211 4.74932211 1.53556211 4.78098526 1.53556211 7.39302737 6.73684211e-05 6.99723789 6.73684211e-05 4.67033263 1.37724632 4.67033263 6.73684211e-05 4.43269053 6.73684211e-05 4.43269053 1.50406737 4.43269053 1.53573053 4.43269053 1.86819368 4.67033263 1.86819368 5.79420632 1.86819368 8.02595368 1.86819368 8.02595368 1.53573053 6.36380632 1.53573053 7.99445895 0.570172632 8.02595368 0.570172632 8.02595368 0.570004211"></polygon>
                    <polygon id="Fill-12" fill="#FFFFFF" points="8.02593684 3.11882105 8.02593684 2.81802105 5.80985263 2.81802105 4.66997895 2.81802105 4.43250526 2.81802105 4.43250526 3.11882105 4.43250526 3.16614737 4.43250526 4.70164211 4.66997895 4.70164211 4.66997895 3.30863158 7.01271579 4.70164211 8.01010526 4.70164211 5.39806316 3.15031579 6.06298947 3.15031579 8.01010526 4.29018947 8.01010526 4.11604211 8.02593684 4.11604211 6.31646316 3.11882105"></polygon>
                </g>
            </g>
            <polygon id="Fill-2" fill="#E34F4F" points="4.52749474 8.23191579 4.43267368 7.39301053 5.17675789 7.34551579 4.55932632 6.87073684 4.95511579 6.15848421 4.24286316 6.47494737 4.00538947 5.65187368 3.81541053 6.47494737 3.10315789 6.15848421 3.49894737 6.87073684 2.88151579 7.32985263 3.6256 7.39317895 3.49894737 8.23208421 4.02138947 7.64631579"></polygon>
            <polygon id="Fill-3" fill="#E34F4F" points="10.1788632 4.68581053 10.1472 4.29002105 10.4796632 4.27418947 10.1948632 4.05254737 10.3848421 3.73591579 10.0522105 3.87856842 9.94155789 3.49861053 9.8624 3.87856842 9.52976842 3.73591579 9.71974737 4.05254737 9.43494737 4.27418947 9.76741053 4.29002105 9.71991579 4.68581053 9.95738947 4.41667368"></polygon>
            <polygon id="Fill-4" fill="#E34F4F" points="11.5247158 1.2192 11.7146947 1.55166316 11.4297263 1.75747368 11.7623579 1.78913684 11.7148632 2.16909474 11.9521684 1.89995789 12.1738105 2.16909474 12.1421474 1.7888 12.4746105 1.75713684 12.1896421 1.55132632 12.3796211 1.21886316 12.0471579 1.36134737 11.9521684 0.981389474 11.8573474 1.36134737"></polygon>
            <polygon id="Fill-5" fill="#E34F4F" points="12.1736421 8.35856842 12.1419789 7.96277895 12.4744421 7.94694737 12.1894737 7.72530526 12.3794526 7.40867368 12.0469895 7.55132632 11.952 7.17136842 11.8571789 7.55132632 11.5247158 7.40867368 11.7146947 7.72530526 11.4297263 7.94694737 11.7623579 7.96277895 11.7148632 8.35856842 11.9521684 8.08943158"></polygon>
            <polygon id="Fill-6" fill="#E34F4F" points="12.9335579 5.3984 12.8702316 5.14509474 13.0602105 4.95494737 12.8227368 4.95494737 12.7435789 4.70164211 12.6644211 4.95494737 12.4111158 4.95494737 12.6169263 5.16092632 12.5377684 5.3984 12.7435789 5.25574737"></polygon>
            <polygon id="Fill-7" fill="#E34F4F" points="13.9309474 4.05271579 13.8834526 3.65692632 14.2159158 3.64109474 13.9467789 3.41945263 14.1209263 3.10282105 13.8042947 3.24547368 13.6934737 2.86551579 13.5984842 3.24547368 13.2820211 3.08715789 13.456 3.41962105 13.1712 3.6256 13.5193263 3.65726316 13.456 4.05305263 13.6934737 3.78391579"></polygon>
        </g>
    </g>
</svg>