<?xml version="1.0" encoding="UTF-8" standalone="no"?>
<svg width="16px" height="12px" viewBox="0 0 16 12" version="1.1" xmlns="http://www.w3.org/2000/svg" xmlns:xlink="http://www.w3.org/1999/xlink">
    <!-- Generator: Sketch 3.8.2 (29753) - http://www.bohemiancoding.com/sketch -->
    <title>Page 1 Copy</title>
    <desc>Created with Sketch.</desc>
    <defs>
        <rect id="path-1" x="0" y="0" width="16" height="12" rx="1"></rect>
    </defs>
    <g id="Page-1" stroke="none" stroke-width="1" fill="none" fill-rule="evenodd">
        <g id="Page-1-Copy">
            <g id="Group-5">
                <mask id="mask-2" fill="white">
                    <use xlink:href="#path-1"></use>
                </mask>
                <use id="Mask" fill="#2273C9" xlink:href="#path-1"></use>
                <g mask="url(#mask-2)">
                    <polygon id="Fill-8" fill="#E34F4F" points="6.97005474 6.73684211e-05 4.69030737 1.34541474 4.69030737 6.73684211e-05 3.29274947 6.73684211e-05 3.29274947 1.34541474 1.01300211 6.73684211e-05 -5.05263158e-05 6.73684211e-05 -5.05263158e-05 0.570004211 1.66226526 1.53556211 -5.05263158e-05 1.53556211 -5.05263158e-05 3.12663579 1.66226526 3.12663579 -5.05263158e-05 4.09219368 -5.05263158e-05 4.70154105 1.01300211 4.70154105 3.29274947 3.35619368 3.29274947 4.70154105 4.69030737 4.70154105 4.69030737 3.35619368 6.97005474 4.70154105 8.02588632 4.70154105 8.02588632 4.09219368 6.36373895 3.12663579 8.02588632 3.12663579 8.02588632 1.53556211 6.36373895 1.53556211 8.02588632 0.570004211 8.02588632 6.73684211e-05"></polygon>
                    <polygon id="Fill-9" fill="#FFFFFF" points="3.29274947 6.73684211e-05 3.29274947 1.34541474 1.01300211 6.73684211e-05 0.0156126316 6.73684211e-05 2.61182316 1.53556211 1.97856 1.53556211 1.96272842 1.53556211 -5.05263158e-05 0.395856842 -5.05263158e-05 0.570004211 0.0316126316 0.570004211 1.66226526 1.53556211 -5.05263158e-05 1.53556211 -5.05263158e-05 1.86802526 2.21620211 1.86802526 3.29274947 1.86802526 3.57771789 1.86802526 3.57771789 1.53556211 3.57771789 1.51973053 3.57771789 6.73684211e-05"></polygon>
                    <polygon id="Fill-10" fill="#FFFFFF" points="3.29259789 2.81807158 2.20055579 2.81807158 -3.36842106e-05 2.81807158 -3.36842106e-05 3.11887158 1.69411368 3.11887158 -3.36842106e-05 4.11609263 -3.36842106e-05 4.70169263 2.62784 3.15053474 3.29276632 3.15053474 0.633061053 4.70152421 0.997187368 4.70152421 3.29259789 3.34017684 3.29259789 4.70152421 3.57756632 4.70152421 3.57756632 3.16602947 3.57756632 3.11887158 3.57756632 2.81807158"></polygon>
                    <polygon id="Fill-11" fill="#FFFFFF" points="8.02595368 6.73684211e-05 5.44574316 1.53556211 5.41408 1.53556211 4.74932211 1.53556211 4.78098526 1.53556211 7.39302737 6.73684211e-05 6.99723789 6.73684211e-05 4.67033263 1.37724632 4.67033263 6.73684211e-05 4.43269053 6.73684211e-05 4.43269053 1.50406737 4.43269053 1.53573053 4.43269053 1.86819368 4.67033263 1.86819368 5.79420632 1.86819368 8.02595368 1.86819368 8.02595368 1.53573053 6.36380632 1.53573053 7.99445895 0.570172632 8.02595368 0.570172632 8.02595368 0.570004211"></polygon>
                    <polygon id="Fill-12" fill="#FFFFFF" points="8.02593684 3.11882105 8.02593684 2.81802105 5.80985263 2.81802105 4.66997895 2.81802105 4.43250526 2.81802105 4.43250526 3.11882105 4.43250526 3.16614737 4.43250526 4.70164211 4.66997895 4.70164211 4.66997895 3.30863158 7.01271579 4.70164211 8.01010526 4.70164211 5.39806316 3.15031579 6.06298947 3.15031579 8.01010526 4.29018947 8.01010526 4.11604211 8.02593684 4.11604211 6.31646316 3.11882105"></polygon>
                </g>
            </g>
            <path d="M13.5333333,4.22222222 L13.712926,4.87597982 L14.3333333,4.87597982 L13.8435156,5.2755336 L14.0231297,5.91111111 L13.5333333,5.51158 L13.043537,5.89293102 L13.2231297,5.2755336 L12.7333333,4.87597982 L13.3374062,4.87597982 L13.5333333,4.22222222 L13.5333333,4.22222222 L13.5333333,4.22222222 L13.5333333,4.22222222 L13.5333333,4.22222222 Z M11.6666667,7.68888889 L11.8462594,8.34264649 L12.4666667,8.34264649 L11.9768489,8.74220027 L12.156463,9.37777778 L11.6666667,8.97824667 L11.1768703,9.35959769 L11.356463,8.74220027 L10.8666667,8.34264649 L11.4707396,8.34264649 L11.6666667,7.68888889 L11.6666667,7.68888889 L11.6666667,7.68888889 L11.6666667,7.68888889 L11.6666667,7.68888889 Z M11.6666667,2 L11.8462594,2.65375759 L12.4666667,2.65375759 L11.9768489,3.05331138 L12.156463,3.68888889 L11.6666667,3.28935777 L11.1768703,3.67070881 L11.356463,3.05331138 L10.8666667,2.65375759 L11.4707396,2.65375759 L11.6666667,2 L11.6666667,2 L11.6666667,2 L11.6666667,2 L11.6666667,2 Z M9.8,4.4 L9.97959271,5.0537576 L10.6,5.0537576 L10.1101822,5.45331138 L10.2897964,6.08888889 L9.8,5.68935778 L9.31020364,6.0707088 L9.48979636,5.45331138 L9,5.0537576 L9.60407289,5.0537576 L9.8,4.4 L9.8,4.4 L9.8,4.4 L9.8,4.4 L9.8,4.4 Z" id="Shape" fill="#E34F4F"></path>
        </g>
    </g>
</svg>